<?xml version="1.0" encoding="utf-8"?>
<!-- Generated by Mocodo 4.3.2 -->
<svg width="577" height="474" viewBox="0 0 577 474" xmlns="http://www.w3.org/2000/svg">
<rect x="0" y="0" width="577" height="474" fill="#ffffbf" stroke="none" stroke-width="0"/>

<!-- Association PLANIFIER -->
<g>
	<line x1="96" y1="178" x2="249" y2="60" stroke="#f46d43" stroke-width="2"/>
	<line x1="375" y1="60" x2="249" y2="60" stroke="#f46d43" stroke-width="2"/>
	<g>
		<path d="M267 35 a14 14 90 0 1 14 14 V60 h-64 V49 a14 14 90 0 1 14 -14" fill="#fdae61" stroke="#fdae61" stroke-width="0"/>
		<path d="M281 60 v11 a14 14 90 0 1 -14 14 H231 a14 14 90 0 1 -14 -14 V60 H64" fill="#fee090" stroke="#fee090" stroke-width="0"/>
		<rect x="217" y="35" width="64" height="50" fill="none" rx="14" stroke="#f46d43" stroke-width="2"/>
		<line x1="217" y1="60" x2="281" y2="60" stroke="#f46d43" stroke-width="1"/>
		<text x="225" y="52.75" fill="#000000" font-family="Verdana" font-size="12">Planifier</text>
	</g>
	<text x="188" y="122.11" fill="#4575b4" font-family="Verdana" font-size="12">0,N</text>
	<text x="287" y="77" fill="#4575b4" font-family="Verdana" font-size="12">1,1</text>
</g>

<!-- Association IMPLIQUE -->
<g>
	<line x1="249" y1="322" x2="249" y2="178" stroke="#f46d43" stroke-width="2"/>
	<line x1="375" y1="178" x2="249" y2="178" stroke="#f46d43" stroke-width="2"/>
	<g>
		<path d="M269 153 a14 14 90 0 1 14 14 V178 h-68 V167 a14 14 90 0 1 14 -14" fill="#fdae61" stroke="#fdae61" stroke-width="0"/>
		<path d="M283 178 v11 a14 14 90 0 1 -14 14 H229 a14 14 90 0 1 -14 -14 V178 H68" fill="#fee090" stroke="#fee090" stroke-width="0"/>
		<rect x="215" y="153" width="68" height="50" fill="none" rx="14" stroke="#f46d43" stroke-width="2"/>
		<line x1="215" y1="178" x2="283" y2="178" stroke="#f46d43" stroke-width="1"/>
		<text x="222" y="170.75" fill="#000000" font-family="Verdana" font-size="12">Implique</text>
	</g>
	<text x="254" y="263" fill="#4575b4" font-family="Verdana" font-size="12">0,N</text>
	<text x="306" y="195" fill="#4575b4" font-family="Verdana" font-size="12">0,N</text>
</g>

<!-- Association PARTICIPE -->
<g>
	<line x1="512" y1="322" x2="512" y2="178" stroke="#f46d43" stroke-width="2"/>
	<line x1="375" y1="178" x2="512" y2="178" stroke="#f46d43" stroke-width="2"/>
	<g>
		<path d="M532 153 a14 14 90 0 1 14 14 V178 h-68 V167 a14 14 90 0 1 14 -14" fill="#fdae61" stroke="#fdae61" stroke-width="0"/>
		<path d="M546 178 v11 a14 14 90 0 1 -14 14 H492 a14 14 90 0 1 -14 -14 V178 H68" fill="#fee090" stroke="#fee090" stroke-width="0"/>
		<rect x="478" y="153" width="68" height="50" fill="none" rx="14" stroke="#f46d43" stroke-width="2"/>
		<line x1="478" y1="178" x2="546" y2="178" stroke="#f46d43" stroke-width="1"/>
		<text x="486" y="170.75" fill="#000000" font-family="Verdana" font-size="12">Participe</text>
	</g>
	<text x="517" y="272" fill="#4575b4" font-family="Verdana" font-size="12">0,N</text>
	<text x="422" y="195" fill="#4575b4" font-family="Verdana" font-size="12">0,N</text>
</g>

<!-- Association APPARTENIR -->
<g>
	<line x1="96" y1="178" x2="96" y2="322" stroke="#f46d43" stroke-width="2"/>
	<line x1="249" y1="322" x2="96" y2="322" stroke="#f46d43" stroke-width="2"/>
	<g>
		<path d="M121 297 a14 14 90 0 1 14 14 V322 h-78 V311 a14 14 90 0 1 14 -14" fill="#fdae61" stroke="#fdae61" stroke-width="0"/>
		<path d="M135 322 v11 a14 14 90 0 1 -14 14 H71 a14 14 90 0 1 -14 -14 V322 H78" fill="#fee090" stroke="#fee090" stroke-width="0"/>
		<rect x="57" y="297" width="78" height="50" fill="none" rx="14" stroke="#f46d43" stroke-width="2"/>
		<line x1="57" y1="322" x2="135" y2="322" stroke="#f46d43" stroke-width="1"/>
		<text x="64" y="314.75" fill="#000000" font-family="Verdana" font-size="12">Appartenir</text>
	</g>
	<text x="101" y="263" fill="#4575b4" font-family="Verdana" font-size="12">0,N</text>
	<text x="183" y="339" fill="#4575b4" font-family="Verdana" font-size="12">1,1</text>
</g>

<!-- Association ETRE_RATTACHE -->
<g>
	<line x1="249" y1="322" x2="375" y2="322" stroke="#f46d43" stroke-width="2"/>
	<line x1="512" y1="322" x2="375" y2="322" stroke="#f46d43" stroke-width="2"/>
	<g>
		<path d="M410 297 a14 14 90 0 1 14 14 V322 h-98 V311 a14 14 90 0 1 14 -14" fill="#fdae61" stroke="#fdae61" stroke-width="0"/>
		<path d="M424 322 v11 a14 14 90 0 1 -14 14 H340 a14 14 90 0 1 -14 -14 V322 H98" fill="#fee090" stroke="#fee090" stroke-width="0"/>
		<rect x="326" y="297" width="98" height="50" fill="none" rx="14" stroke="#f46d43" stroke-width="2"/>
		<line x1="326" y1="322" x2="424" y2="322" stroke="#f46d43" stroke-width="1"/>
		<text x="334" y="314.75" fill="#000000" font-family="Verdana" font-size="12">Etre_rattache</text>
	</g>
	<text x="294" y="339" fill="#4575b4" font-family="Verdana" font-size="12">0,N</text>
	<text x="430" y="339" fill="#4575b4" font-family="Verdana" font-size="12">1,1</text>
</g>

<!-- Association VALIDE -->
<g>
	<line x1="375" y1="423" x2="249" y2="423" stroke="#f46d43" stroke-width="2"/>
	<line x1="249" y1="322" x2="249" y2="423" stroke="#f46d43" stroke-width="2"/>
	<g>
		<path d="M261 398 a14 14 90 0 1 14 14 V423 h-52 V412 a14 14 90 0 1 14 -14" fill="#fdae61" stroke="#fdae61" stroke-width="0"/>
		<path d="M275 423 v11 a14 14 90 0 1 -14 14 H237 a14 14 90 0 1 -14 -14 V423 H52" fill="#fee090" stroke="#fee090" stroke-width="0"/>
		<rect x="223" y="398" width="52" height="50" fill="none" rx="14" stroke="#f46d43" stroke-width="2"/>
		<line x1="223" y1="423" x2="275" y2="423" stroke="#f46d43" stroke-width="1"/>
		<text x="230" y="415.75" fill="#000000" font-family="Verdana" font-size="12">Valide</text>
	</g>
	<text x="317" y="440" fill="#4575b4" font-family="Verdana" font-size="12">0,N</text>
	<text x="254" y="390" fill="#4575b4" font-family="Verdana" font-size="12">0,N</text>
</g>

<!-- Entity MAINTENANCE -->
<g>
	<g>
		<rect x="313" y="9" width="124" height="25" fill="#abd9e9" stroke="none" stroke-width="0" opacity="1"/>
		<rect x="313" y="34" width="124" height="77" fill="#e0f3f8" stroke="none" stroke-width="0" opacity="1"/>
		<rect x="313" y="9" width="124" height="102" fill="none" stroke="#74add1" stroke-width="2" opacity="1"/>
		<line x1="313" y1="34" x2="437" y2="34" stroke="#74add1" stroke-width="1"/>
	</g>
	<text x="337" y="26.75" fill="#000000" font-family="Verdana" font-size="12">Maintenance</text>
	<text x="318" y="51.8" fill="#000000" font-family="Verdana" font-size="12">idMaint</text>
	<line x1="318" y1="54" x2="363" y2="54" stroke="#000000" stroke-width="1"/>
	<text x="318" y="68.8" fill="#000000" font-family="Verdana" font-size="12">date_maintenance</text>
	<text x="318" y="85.8" fill="#000000" font-family="Verdana" font-size="12">duree</text>
	<text x="318" y="102.8" fill="#000000" font-family="Verdana" font-size="12">type_operation</text>
</g>

<!-- Entity PLATEFORME -->
<g>
	<g>
		<rect x="9" y="110" width="174" height="25" fill="#abd9e9" stroke="none" stroke-width="0" opacity="1"/>
		<rect x="9" y="135" width="174" height="111" fill="#e0f3f8" stroke="none" stroke-width="0" opacity="1"/>
		<rect x="9" y="110" width="174" height="136" fill="none" stroke="#74add1" stroke-width="2" opacity="1"/>
		<line x1="9" y1="135" x2="183" y2="135" stroke="#74add1" stroke-width="1"/>
	</g>
	<text x="63" y="127.75" fill="#000000" font-family="Verdana" font-size="12">Plateforme</text>
	<text x="14" y="152.8" fill="#000000" font-family="Verdana" font-size="12">idPl</text>
	<line x1="14" y1="155" x2="36" y2="155" stroke="#000000" stroke-width="1"/>
	<text x="14" y="169.8" fill="#000000" font-family="Verdana" font-size="12">nom</text>
	<text x="14" y="186.8" fill="#000000" font-family="Verdana" font-size="12">nb_personnes_necessaires</text>
	<text x="14" y="203.8" fill="#000000" font-family="Verdana" font-size="12">cout_journalier</text>
	<text x="14" y="220.8" fill="#000000" font-family="Verdana" font-size="12">habilitations_requises</text>
	<text x="14" y="237.8" fill="#000000" font-family="Verdana" font-size="12">intervalle_maintenance</text>
</g>

<!-- Entity PERSONNEL -->
<g>
	<g>
		<rect x="333" y="136" width="84" height="25" fill="#abd9e9" stroke="none" stroke-width="0" opacity="1"/>
		<rect x="333" y="161" width="84" height="59" fill="#e0f3f8" stroke="none" stroke-width="0" opacity="1"/>
		<rect x="333" y="136" width="84" height="84" fill="none" stroke="#74add1" stroke-width="2" opacity="1"/>
		<line x1="333" y1="161" x2="417" y2="161" stroke="#74add1" stroke-width="1"/>
	</g>
	<text x="345" y="153.75" fill="#000000" font-family="Verdana" font-size="12">Personnel</text>
	<text x="338" y="178.8" fill="#000000" font-family="Verdana" font-size="12">idPers</text>
	<line x1="338" y1="181" x2="376" y2="181" stroke="#000000" stroke-width="1"/>
	<text x="338" y="195.8" fill="#000000" font-family="Verdana" font-size="12">nom</text>
	<text x="338" y="212.8" fill="#000000" font-family="Verdana" font-size="12">habilitations</text>
</g>

<!-- Entity CAMPAGNE -->
<g>
	<g>
		<rect x="209" y="271" width="80" height="25" fill="#abd9e9" stroke="none" stroke-width="0" opacity="1"/>
		<rect x="209" y="296" width="80" height="77" fill="#e0f3f8" stroke="none" stroke-width="0" opacity="1"/>
		<rect x="209" y="271" width="80" height="102" fill="none" stroke="#74add1" stroke-width="2" opacity="1"/>
		<line x1="209" y1="296" x2="289" y2="296" stroke="#74add1" stroke-width="1"/>
	</g>
	<text x="217" y="288.75" fill="#000000" font-family="Verdana" font-size="12">Campagne</text>
	<text x="214" y="313.8" fill="#000000" font-family="Verdana" font-size="12">idCamp</text>
	<line x1="214" y1="316" x2="261" y2="316" stroke="#000000" stroke-width="1"/>
	<text x="214" y="330.8" fill="#000000" font-family="Verdana" font-size="12">date_debut</text>
	<text x="214" y="347.8" fill="#000000" font-family="Verdana" font-size="12">duree</text>
	<text x="214" y="364.8" fill="#000000" font-family="Verdana" font-size="12">lieu</text>
</g>

<!-- Entity ECHANTILLON -->
<g>
	<g>
		<rect x="456" y="280" width="112" height="25" fill="#abd9e9" stroke="none" stroke-width="0" opacity="1"/>
		<rect x="456" y="305" width="112" height="59" fill="#e0f3f8" stroke="none" stroke-width="0" opacity="1"/>
		<rect x="456" y="280" width="112" height="84" fill="none" stroke="#74add1" stroke-width="2" opacity="1"/>
		<line x1="456" y1="305" x2="568" y2="305" stroke="#74add1" stroke-width="1"/>
	</g>
	<text x="479" y="297.75" fill="#000000" font-family="Verdana" font-size="12">Echantillon</text>
	<text x="461" y="322.8" fill="#000000" font-family="Verdana" font-size="12">idEch</text>
	<line x1="461" y1="325" x2="494" y2="325" stroke="#000000" stroke-width="1"/>
	<text x="461" y="339.8" fill="#000000" font-family="Verdana" font-size="12">fichier_sequence</text>
	<text x="461" y="356.8" fill="#000000" font-family="Verdana" font-size="12">commentaire</text>
</g>

<!-- Entity BUDGET -->
<g>
	<g>
		<rect x="344" y="381" width="62" height="25" fill="#abd9e9" stroke="none" stroke-width="0" opacity="1"/>
		<rect x="344" y="406" width="62" height="59" fill="#e0f3f8" stroke="none" stroke-width="0" opacity="1"/>
		<rect x="344" y="381" width="62" height="84" fill="none" stroke="#74add1" stroke-width="2" opacity="1"/>
		<line x1="344" y1="406" x2="406" y2="406" stroke="#74add1" stroke-width="1"/>
	</g>
	<text x="353" y="398.75" fill="#000000" font-family="Verdana" font-size="12">Budget</text>
	<text x="349" y="423.8" fill="#000000" font-family="Verdana" font-size="12">idBudg</text>
	<line x1="349" y1="426" x2="392" y2="426" stroke="#000000" stroke-width="1"/>
	<text x="349" y="440.8" fill="#000000" font-family="Verdana" font-size="12">mois</text>
	<text x="349" y="457.8" fill="#000000" font-family="Verdana" font-size="12">montant</text>
</g>
</svg>