<?xml version="1.0" encoding="utf-8"?>
<!-- Generated by Mocodo 4.3.2 -->
<svg width="562" height="457" viewBox="0 0 562 457" xmlns="http://www.w3.org/2000/svg">
<rect x="0" y="0" width="562" height="457" fill="#f7f7f7" stroke="none" stroke-width="0"/>

<!-- Association POSSEDE -->
<g>
	<line x1="371" y1="43" x2="247" y2="43" stroke="#e08214" stroke-width="2"/>
	<line x1="96" y1="43" x2="247" y2="43" stroke="#e08214" stroke-width="2"/>
	<g>
		<path d="M270 18 a14 14 90 0 1 14 14 V43 h-74 V32 a14 14 90 0 1 14 -14" fill="#fdb863" stroke="#fdb863" stroke-width="0"/>
		<path d="M284 43 v11 a14 14 90 0 1 -14 14 H224 a14 14 90 0 1 -14 -14 V43 H74" fill="#fee0b6" stroke="#fee0b6" stroke-width="0"/>
		<rect x="210" y="18" width="74" height="50" fill="none" rx="14" stroke="#e08214" stroke-width="2"/>
		<line x1="210" y1="43" x2="284" y2="43" stroke="#e08214" stroke-width="1"/>
		<text x="218" y="35.75" fill="#000000" font-family="Verdana" font-size="12">POSSEDE</text>
	</g>
	<text x="302" y="60" fill="#542788" font-family="Verdana" font-size="12">0,N</text>
	<text x="151" y="60" fill="#542788" font-family="Verdana" font-size="12">0,N</text>
</g>

<!-- Association PARTICIPE -->
<g>
	<line x1="497" y1="144" x2="497" y2="43" stroke="#e08214" stroke-width="2"/>
	<line x1="371" y1="43" x2="497" y2="43" stroke="#e08214" stroke-width="2"/>
	<g>
		<path d="M523 18 a14 14 90 0 1 14 14 V43 h-80 V32 a14 14 90 0 1 14 -14" fill="#fdb863" stroke="#fdb863" stroke-width="0"/>
		<path d="M537 43 v11 a14 14 90 0 1 -14 14 H471 a14 14 90 0 1 -14 -14 V43 H80" fill="#fee0b6" stroke="#fee0b6" stroke-width="0"/>
		<rect x="457" y="18" width="80" height="50" fill="none" rx="14" stroke="#e08214" stroke-width="2"/>
		<line x1="457" y1="43" x2="537" y2="43" stroke="#e08214" stroke-width="1"/>
		<text x="465" y="35.75" fill="#000000" font-family="Verdana" font-size="12">PARTICIPE</text>
	</g>
	<text x="502" y="94" fill="#542788" font-family="Verdana" font-size="12">0,N</text>
	<text x="418" y="60" fill="#542788" font-family="Verdana" font-size="12">0,N</text>
</g>

<!-- Association REQUIERT -->
<g>
	<line x1="96" y1="262" x2="96" y2="144" stroke="#e08214" stroke-width="2"/>
	<line x1="96" y1="43" x2="96" y2="144" stroke="#e08214" stroke-width="2"/>
	<g>
		<path d="M121 119 a14 14 90 0 1 14 14 V144 h-78 V133 a14 14 90 0 1 14 -14" fill="#fdb863" stroke="#fdb863" stroke-width="0"/>
		<path d="M135 144 v11 a14 14 90 0 1 -14 14 H71 a14 14 90 0 1 -14 -14 V144 H78" fill="#fee0b6" stroke="#fee0b6" stroke-width="0"/>
		<rect x="57" y="119" width="78" height="50" fill="none" rx="14" stroke="#e08214" stroke-width="2"/>
		<line x1="57" y1="144" x2="135" y2="144" stroke="#e08214" stroke-width="1"/>
		<text x="64" y="136.75" fill="#000000" font-family="Verdana" font-size="12">REQUIERT</text>
	</g>
	<text x="101" y="195" fill="#542788" font-family="Verdana" font-size="12">0,N</text>
	<text x="101" y="94" fill="#542788" font-family="Verdana" font-size="12">0,N</text>
</g>

<!-- Association IMPLIQUE -->
<g>
	<line x1="371" y1="262" x2="371" y2="144" stroke="#e08214" stroke-width="2"/>
	<line x1="371" y1="43" x2="371" y2="144" stroke="#e08214" stroke-width="2"/>
	<g>
		<path d="M395 119 a14 14 90 0 1 14 14 V144 h-76 V133 a14 14 90 0 1 14 -14" fill="#fdb863" stroke="#fdb863" stroke-width="0"/>
		<path d="M409 144 v11 a14 14 90 0 1 -14 14 H347 a14 14 90 0 1 -14 -14 V144 H76" fill="#fee0b6" stroke="#fee0b6" stroke-width="0"/>
		<rect x="333" y="119" width="76" height="50" fill="none" rx="14" stroke="#e08214" stroke-width="2"/>
		<line x1="333" y1="144" x2="409" y2="144" stroke="#e08214" stroke-width="1"/>
		<text x="341" y="136.75" fill="#000000" font-family="Verdana" font-size="12">IMPLIQUE</text>
	</g>
	<text x="376" y="203" fill="#542788" font-family="Verdana" font-size="12">0,N</text>
	<text x="376" y="94" fill="#542788" font-family="Verdana" font-size="12">0,N</text>
</g>

<!-- Association UTILISE -->
<g>
	<line x1="371" y1="262" x2="247" y2="262" stroke="#e08214" stroke-width="2"/>
	<line x1="96" y1="262" x2="247" y2="262" stroke="#e08214" stroke-width="2"/>
	<g>
		<path d="M265 237 a14 14 90 0 1 14 14 V262 h-64 V251 a14 14 90 0 1 14 -14" fill="#fdb863" stroke="#fdb863" stroke-width="0"/>
		<path d="M279 262 v11 a14 14 90 0 1 -14 14 H229 a14 14 90 0 1 -14 -14 V262 H64" fill="#fee0b6" stroke="#fee0b6" stroke-width="0"/>
		<rect x="215" y="237" width="64" height="50" fill="none" rx="14" stroke="#e08214" stroke-width="2"/>
		<line x1="215" y1="262" x2="279" y2="262" stroke="#e08214" stroke-width="1"/>
		<text x="222" y="254.75" fill="#000000" font-family="Verdana" font-size="12">UTILISE</text>
	</g>
	<text x="304" y="279" fill="#542788" font-family="Verdana" font-size="12">1,N</text>
	<text x="188" y="279" fill="#542788" font-family="Verdana" font-size="12">0,N</text>
</g>

<!-- Association GENERE -->
<g>
	<line x1="371" y1="262" x2="497" y2="262" stroke="#e08214" stroke-width="2"/>
	<line x1="497" y1="144" x2="497" y2="262" stroke="#e08214" stroke-width="2"/>
	<g>
		<path d="M515 237 a14 14 90 0 1 14 14 V262 h-64 V251 a14 14 90 0 1 14 -14" fill="#fdb863" stroke="#fdb863" stroke-width="0"/>
		<path d="M529 262 v11 a14 14 90 0 1 -14 14 H479 a14 14 90 0 1 -14 -14 V262 H64" fill="#fee0b6" stroke="#fee0b6" stroke-width="0"/>
		<rect x="465" y="237" width="64" height="50" fill="none" rx="14" stroke="#e08214" stroke-width="2"/>
		<line x1="465" y1="262" x2="529" y2="262" stroke="#e08214" stroke-width="1"/>
		<text x="472" y="254.75" fill="#000000" font-family="Verdana" font-size="12">GENERE</text>
	</g>
	<text x="416" y="279" fill="#542788" font-family="Verdana" font-size="12">1,N</text>
	<text x="502" y="203" fill="#542788" font-family="Verdana" font-size="12">0,N</text>
</g>

<!-- Association SUBIT -->
<g>
	<line x1="96" y1="262" x2="96" y2="397" stroke="#e08214" stroke-width="2"/>
	<line x1="247" y1="397" x2="96" y2="397" stroke="#e08214" stroke-width="2"/>
	<g>
		<path d="M109 372 a14 14 90 0 1 14 14 V397 h-54 V386 a14 14 90 0 1 14 -14" fill="#fdb863" stroke="#fdb863" stroke-width="0"/>
		<path d="M123 397 v11 a14 14 90 0 1 -14 14 H83 a14 14 90 0 1 -14 -14 V397 H54" fill="#fee0b6" stroke="#fee0b6" stroke-width="0"/>
		<rect x="69" y="372" width="54" height="50" fill="none" rx="14" stroke="#e08214" stroke-width="2"/>
		<line x1="69" y1="397" x2="123" y2="397" stroke="#e08214" stroke-width="1"/>
		<text x="77" y="389.75" fill="#000000" font-family="Verdana" font-size="12">SUBIT</text>
	</g>
	<text x="101" y="338" fill="#542788" font-family="Verdana" font-size="12">1,N</text>
	<text x="158" y="414" fill="#542788" font-family="Verdana" font-size="12">0,N</text>
</g>

<!-- Association VALIDE -->
<g>
	<line x1="371" y1="262" x2="371" y2="397" stroke="#e08214" stroke-width="2"/>
	<line x1="497" y1="397" x2="371" y2="397" stroke="#e08214" stroke-width="2"/>
	<g>
		<path d="M387 372 a14 14 90 0 1 14 14 V397 h-60 V386 a14 14 90 0 1 14 -14" fill="#fdb863" stroke="#fdb863" stroke-width="0"/>
		<path d="M401 397 v11 a14 14 90 0 1 -14 14 H355 a14 14 90 0 1 -14 -14 V397 H60" fill="#fee0b6" stroke="#fee0b6" stroke-width="0"/>
		<rect x="341" y="372" width="60" height="50" fill="none" rx="14" stroke="#e08214" stroke-width="2"/>
		<line x1="341" y1="397" x2="401" y2="397" stroke="#e08214" stroke-width="1"/>
		<text x="348" y="389.75" fill="#000000" font-family="Verdana" font-size="12">VALIDE</text>
	</g>
	<text x="376" y="330" fill="#542788" font-family="Verdana" font-size="12">0,N</text>
	<text x="439" y="414" fill="#542788" font-family="Verdana" font-size="12">0,N</text>
</g>

<!-- Entity HABILITATION -->
<g>
	<g>
		<rect x="46" y="9" width="100" height="25" fill="#b2abd2" stroke="none" stroke-width="0" opacity="1"/>
		<rect x="46" y="34" width="100" height="43" fill="#d8daeb" stroke="none" stroke-width="0" opacity="1"/>
		<rect x="46" y="9" width="100" height="68" fill="none" stroke="#8073ac" stroke-width="2" opacity="1"/>
		<line x1="46" y1="34" x2="146" y2="34" stroke="#8073ac" stroke-width="1"/>
	</g>
	<text x="51" y="26.75" fill="#000000" font-family="Verdana" font-size="12">HABILITATION</text>
	<text x="51" y="51.8" fill="#000000" font-family="Verdana" font-size="12">idHab</text>
	<text x="51" y="68.8" fill="#000000" font-family="Verdana" font-size="12">nomHab</text>
</g>

<!-- Entity PERSONNEL -->
<g>
	<g>
		<rect x="329" y="9" width="84" height="25" fill="#b2abd2" stroke="none" stroke-width="0" opacity="1"/>
		<rect x="329" y="34" width="84" height="43" fill="#d8daeb" stroke="none" stroke-width="0" opacity="1"/>
		<rect x="329" y="9" width="84" height="68" fill="none" stroke="#8073ac" stroke-width="2" opacity="1"/>
		<line x1="329" y1="34" x2="413" y2="34" stroke="#8073ac" stroke-width="1"/>
	</g>
	<text x="334" y="26.75" fill="#000000" font-family="Verdana" font-size="12">PERSONNEL</text>
	<text x="334" y="51.8" fill="#000000" font-family="Verdana" font-size="12">idPers</text>
	<text x="334" y="68.8" fill="#000000" font-family="Verdana" font-size="12">nom</text>
</g>

<!-- Entity ECHANTILLON -->
<g>
	<g>
		<rect x="441" y="102" width="112" height="25" fill="#b2abd2" stroke="none" stroke-width="0" opacity="1"/>
		<rect x="441" y="127" width="112" height="59" fill="#d8daeb" stroke="none" stroke-width="0" opacity="1"/>
		<rect x="441" y="102" width="112" height="84" fill="none" stroke="#8073ac" stroke-width="2" opacity="1"/>
		<line x1="441" y1="127" x2="553" y2="127" stroke="#8073ac" stroke-width="1"/>
	</g>
	<text x="453" y="119.75" fill="#000000" font-family="Verdana" font-size="12">ECHANTILLON</text>
	<text x="446" y="144.8" fill="#000000" font-family="Verdana" font-size="12">idEch</text>
	<text x="446" y="161.8" fill="#000000" font-family="Verdana" font-size="12">fichier_sequence</text>
	<text x="446" y="178.8" fill="#000000" font-family="Verdana" font-size="12">commentaire</text>
</g>

<!-- Entity PLATEFORME -->
<g>
	<g>
		<rect x="9" y="203" width="174" height="25" fill="#b2abd2" stroke="none" stroke-width="0" opacity="1"/>
		<rect x="9" y="228" width="174" height="93" fill="#d8daeb" stroke="none" stroke-width="0" opacity="1"/>
		<rect x="9" y="203" width="174" height="118" fill="none" stroke="#8073ac" stroke-width="2" opacity="1"/>
		<line x1="9" y1="228" x2="183" y2="228" stroke="#8073ac" stroke-width="1"/>
	</g>
	<text x="56" y="220.75" fill="#000000" font-family="Verdana" font-size="12">PLATEFORME</text>
	<text x="14" y="245.8" fill="#000000" font-family="Verdana" font-size="12">idPl</text>
	<text x="14" y="262.8" fill="#000000" font-family="Verdana" font-size="12">nom</text>
	<text x="14" y="279.8" fill="#000000" font-family="Verdana" font-size="12">nb_personnes_necessaires</text>
	<text x="14" y="296.8" fill="#000000" font-family="Verdana" font-size="12">cout_journalier</text>
	<text x="14" y="313.8" fill="#000000" font-family="Verdana" font-size="12">intervalle_maintenance</text>
</g>

<!-- Entity CAMPAGNE -->
<g>
	<g>
		<rect x="331" y="211" width="80" height="25" fill="#b2abd2" stroke="none" stroke-width="0" opacity="1"/>
		<rect x="331" y="236" width="80" height="77" fill="#d8daeb" stroke="none" stroke-width="0" opacity="1"/>
		<rect x="331" y="211" width="80" height="102" fill="none" stroke="#8073ac" stroke-width="2" opacity="1"/>
		<line x1="331" y1="236" x2="411" y2="236" stroke="#8073ac" stroke-width="1"/>
	</g>
	<text x="337" y="228.75" fill="#000000" font-family="Verdana" font-size="12">CAMPAGNE</text>
	<text x="336" y="253.8" fill="#000000" font-family="Verdana" font-size="12">idCamp</text>
	<text x="336" y="270.8" fill="#000000" font-family="Verdana" font-size="12">date_debut</text>
	<text x="336" y="287.8" fill="#000000" font-family="Verdana" font-size="12">duree</text>
	<text x="336" y="304.8" fill="#000000" font-family="Verdana" font-size="12">lieu</text>
</g>

<!-- Entity MAINTENANCE -->
<g>
	<g>
		<rect x="185" y="346" width="124" height="25" fill="#b2abd2" stroke="none" stroke-width="0" opacity="1"/>
		<rect x="185" y="371" width="124" height="77" fill="#d8daeb" stroke="none" stroke-width="0" opacity="1"/>
		<rect x="185" y="346" width="124" height="102" fill="none" stroke="#8073ac" stroke-width="2" opacity="1"/>
		<line x1="185" y1="371" x2="309" y2="371" stroke="#8073ac" stroke-width="1"/>
	</g>
	<text x="202" y="363.75" fill="#000000" font-family="Verdana" font-size="12">MAINTENANCE</text>
	<text x="190" y="388.8" fill="#000000" font-family="Verdana" font-size="12">idMaint</text>
	<line x1="190" y1="391" x2="235" y2="391" stroke="#000000" stroke-width="1"/>
	<text x="190" y="405.8" fill="#000000" font-family="Verdana" font-size="12">date_maintenance</text>
	<text x="190" y="422.8" fill="#000000" font-family="Verdana" font-size="12">duree</text>
	<text x="190" y="439.8" fill="#000000" font-family="Verdana" font-size="12">type_operation</text>
</g>

<!-- Entity BUDGET -->
<g>
	<g>
		<rect x="466" y="355" width="62" height="25" fill="#b2abd2" stroke="none" stroke-width="0" opacity="1"/>
		<rect x="466" y="380" width="62" height="59" fill="#d8daeb" stroke="none" stroke-width="0" opacity="1"/>
		<rect x="466" y="355" width="62" height="84" fill="none" stroke="#8073ac" stroke-width="2" opacity="1"/>
		<line x1="466" y1="380" x2="528" y2="380" stroke="#8073ac" stroke-width="1"/>
	</g>
	<text x="471" y="372.75" fill="#000000" font-family="Verdana" font-size="12">BUDGET</text>
	<text x="471" y="397.8" fill="#000000" font-family="Verdana" font-size="12">idBudg</text>
	<text x="471" y="414.8" fill="#000000" font-family="Verdana" font-size="12">mois</text>
	<text x="471" y="431.8" fill="#000000" font-family="Verdana" font-size="12">montant</text>
</g>
</svg>