<?xml version="1.0" encoding="utf-8"?>
<!-- Generated by Mocodo 4.3.2 -->
<svg width="814" height="229" viewBox="0 0 814 229" xmlns="http://www.w3.org/2000/svg">
<rect x="0" y="0" width="814" height="229" fill="#f7f7f7" stroke="none" stroke-width="0"/>

<!-- Association UTILISE -->
<g>
	<line x1="96" y1="77" x2="96" y2="195" stroke="#d6604d" stroke-width="2"/>
	<line x1="371" y1="77" x2="96" y2="195" stroke="#d6604d" stroke-width="2"/>
	<g>
		<path d="M108 170 a14 14 90 0 1 14 14 V195 h-52 V184 a14 14 90 0 1 14 -14" fill="#f4a582" stroke="#f4a582" stroke-width="0"/>
		<path d="M122 195 v11 a14 14 90 0 1 -14 14 H84 a14 14 90 0 1 -14 -14 V195 H52" fill="#fddbc7" stroke="#fddbc7" stroke-width="0"/>
		<rect x="70" y="170" width="52" height="50" fill="none" rx="14" stroke="#d6604d" stroke-width="2"/>
		<line x1="70" y1="195" x2="122" y2="195" stroke="#d6604d" stroke-width="1"/>
		<text x="77" y="187.75" fill="#000000" font-family="Verdana" font-size="12">Utilise</text>
	</g>
	<text x="69" y="162" fill="#2166ac" font-family="Verdana" font-size="12">1,N</text>
	<text x="304" y="89.52" fill="#2166ac" font-family="Verdana" font-size="12">0,N</text>
</g>

<!-- Association IMPLIQUE -->
<g>
	<line x1="371" y1="77" x2="257" y2="195" stroke="#d6604d" stroke-width="2"/>
	<line x1="257" y1="77" x2="257" y2="195" stroke="#d6604d" stroke-width="2"/>
	<g>
		<path d="M277 170 a14 14 90 0 1 14 14 V195 h-68 V184 a14 14 90 0 1 14 -14" fill="#f4a582" stroke="#f4a582" stroke-width="0"/>
		<path d="M291 195 v11 a14 14 90 0 1 -14 14 H237 a14 14 90 0 1 -14 -14 V195 H68" fill="#fddbc7" stroke="#fddbc7" stroke-width="0"/>
		<rect x="223" y="170" width="68" height="50" fill="none" rx="14" stroke="#d6604d" stroke-width="2"/>
		<line x1="223" y1="195" x2="291" y2="195" stroke="#d6604d" stroke-width="1"/>
		<text x="230" y="187.75" fill="#000000" font-family="Verdana" font-size="12">Implique</text>
	</g>
	<text x="304" y="117.3" fill="#2166ac" font-family="Verdana" font-size="12">1,N</text>
	<text x="230" y="136" fill="#2166ac" font-family="Verdana" font-size="12">0,N</text>
</g>

<!-- Association PRODUIT -->
<g>
	<line x1="371" y1="77" x2="371" y2="195" stroke="#d6604d" stroke-width="2"/>
	<line x1="499" y1="77" x2="371" y2="195" stroke="#d6604d" stroke-width="2"/>
	<g>
		<path d="M386 170 a14 14 90 0 1 14 14 V195 h-58 V184 a14 14 90 0 1 14 -14" fill="#f4a582" stroke="#f4a582" stroke-width="0"/>
		<path d="M400 195 v11 a14 14 90 0 1 -14 14 H356 a14 14 90 0 1 -14 -14 V195 H58" fill="#fddbc7" stroke="#fddbc7" stroke-width="0"/>
		<rect x="342" y="170" width="58" height="50" fill="none" rx="14" stroke="#d6604d" stroke-width="2"/>
		<line x1="342" y1="195" x2="400" y2="195" stroke="#d6604d" stroke-width="1"/>
		<text x="349" y="187.75" fill="#000000" font-family="Verdana" font-size="12">Produit</text>
	</g>
	<text x="376" y="145" fill="#2166ac" font-family="Verdana" font-size="12">1,N</text>
	<text x="451.78" y="136" fill="#2166ac" font-family="Verdana" font-size="12">0,N</text>
</g>

<!-- Association PARTICIPE -->
<g>
	<line x1="499" y1="77" x2="499" y2="195" stroke="#d6604d" stroke-width="2"/>
	<line x1="257" y1="77" x2="499" y2="195" stroke="#d6604d" stroke-width="2"/>
	<g>
		<path d="M519 170 a14 14 90 0 1 14 14 V195 h-68 V184 a14 14 90 0 1 14 -14" fill="#f4a582" stroke="#f4a582" stroke-width="0"/>
		<path d="M533 195 v11 a14 14 90 0 1 -14 14 H479 a14 14 90 0 1 -14 -14 V195 H68" fill="#fddbc7" stroke="#fddbc7" stroke-width="0"/>
		<rect x="465" y="170" width="68" height="50" fill="none" rx="14" stroke="#d6604d" stroke-width="2"/>
		<line x1="465" y1="195" x2="533" y2="195" stroke="#d6604d" stroke-width="1"/>
		<text x="473" y="187.75" fill="#000000" font-family="Verdana" font-size="12">Participe</text>
	</g>
	<text x="504" y="136" fill="#2166ac" font-family="Verdana" font-size="12">1,N</text>
	<text x="304" y="93.29" fill="#2166ac" font-family="Verdana" font-size="12">0,N</text>
</g>

<!-- Association CONCERNE -->
<g>
	<line x1="96" y1="77" x2="649" y2="195" stroke="#d6604d" stroke-width="2"/>
	<line x1="649" y1="77" x2="649" y2="195" stroke="#d6604d" stroke-width="2"/>
	<g>
		<path d="M671 170 a14 14 90 0 1 14 14 V195 h-72 V184 a14 14 90 0 1 14 -14" fill="#f4a582" stroke="#f4a582" stroke-width="0"/>
		<path d="M685 195 v11 a14 14 90 0 1 -14 14 H627 a14 14 90 0 1 -14 -14 V195 H72" fill="#fddbc7" stroke="#fddbc7" stroke-width="0"/>
		<rect x="613" y="170" width="72" height="50" fill="none" rx="14" stroke="#d6604d" stroke-width="2"/>
		<line x1="613" y1="195" x2="685" y2="195" stroke="#d6604d" stroke-width="1"/>
		<text x="620" y="187.75" fill="#000000" font-family="Verdana" font-size="12">Concerne</text>
	</g>
	<text x="188" y="89.2" fill="#2166ac" font-family="Verdana" font-size="12">1,N</text>
	<text x="654" y="145" fill="#2166ac" font-family="Verdana" font-size="12">0,N</text>
</g>

<!-- Association VALIDE -->
<g>
	<line x1="774" y1="77" x2="774" y2="195" stroke="#d6604d" stroke-width="2"/>
	<line x1="371" y1="77" x2="774" y2="195" stroke="#d6604d" stroke-width="2"/>
	<g>
		<path d="M786 170 a14 14 90 0 1 14 14 V195 h-52 V184 a14 14 90 0 1 14 -14" fill="#f4a582" stroke="#f4a582" stroke-width="0"/>
		<path d="M800 195 v11 a14 14 90 0 1 -14 14 H762 a14 14 90 0 1 -14 -14 V195 H52" fill="#fddbc7" stroke="#fddbc7" stroke-width="0"/>
		<rect x="748" y="170" width="52" height="50" fill="none" rx="14" stroke="#d6604d" stroke-width="2"/>
		<line x1="748" y1="195" x2="800" y2="195" stroke="#d6604d" stroke-width="1"/>
		<text x="755" y="187.75" fill="#000000" font-family="Verdana" font-size="12">Valide</text>
	</g>
	<text x="779" y="136" fill="#2166ac" font-family="Verdana" font-size="12">1,N</text>
	<text x="416" y="82.98" fill="#2166ac" font-family="Verdana" font-size="12">0,N</text>
</g>

<!-- Entity PLATEFORME -->
<g>
	<g>
		<rect x="9" y="9" width="174" height="25" fill="#92c5de" stroke="none" stroke-width="0" opacity="1"/>
		<rect x="9" y="34" width="174" height="111" fill="#d1e5f0" stroke="none" stroke-width="0" opacity="1"/>
		<rect x="9" y="9" width="174" height="136" fill="none" stroke="#4393c3" stroke-width="2" opacity="1"/>
		<line x1="9" y1="34" x2="183" y2="34" stroke="#4393c3" stroke-width="1"/>
	</g>
	<text x="63" y="26.75" fill="#000000" font-family="Verdana" font-size="12">Plateforme</text>
	<text x="14" y="51.8" fill="#000000" font-family="Verdana" font-size="12">id</text>
	<line x1="14" y1="54" x2="26" y2="54" stroke="#000000" stroke-width="1"/>
	<text x="14" y="68.8" fill="#000000" font-family="Verdana" font-size="12">nom</text>
	<text x="14" y="85.8" fill="#000000" font-family="Verdana" font-size="12">nb_personnes_necessaires</text>
	<text x="14" y="102.8" fill="#000000" font-family="Verdana" font-size="12">cout_journalier</text>
	<text x="14" y="119.8" fill="#000000" font-family="Verdana" font-size="12">habilitations_requises</text>
	<text x="14" y="136.8" fill="#000000" font-family="Verdana" font-size="12">intervalle_maintenance</text>
</g>

<!-- Entity PERSONNEL -->
<g>
	<g>
		<rect x="215" y="35" width="84" height="25" fill="#92c5de" stroke="none" stroke-width="0" opacity="1"/>
		<rect x="215" y="60" width="84" height="59" fill="#d1e5f0" stroke="none" stroke-width="0" opacity="1"/>
		<rect x="215" y="35" width="84" height="84" fill="none" stroke="#4393c3" stroke-width="2" opacity="1"/>
		<line x1="215" y1="60" x2="299" y2="60" stroke="#4393c3" stroke-width="1"/>
	</g>
	<text x="227" y="52.75" fill="#000000" font-family="Verdana" font-size="12">Personnel</text>
	<text x="220" y="77.8" fill="#000000" font-family="Verdana" font-size="12">id</text>
	<line x1="220" y1="80" x2="232" y2="80" stroke="#000000" stroke-width="1"/>
	<text x="220" y="94.8" fill="#000000" font-family="Verdana" font-size="12">nom</text>
	<text x="220" y="111.8" fill="#000000" font-family="Verdana" font-size="12">habilitations</text>
</g>

<!-- Entity CAMPAGNE -->
<g>
	<g>
		<rect x="331" y="26" width="80" height="25" fill="#92c5de" stroke="none" stroke-width="0" opacity="1"/>
		<rect x="331" y="51" width="80" height="77" fill="#d1e5f0" stroke="none" stroke-width="0" opacity="1"/>
		<rect x="331" y="26" width="80" height="102" fill="none" stroke="#4393c3" stroke-width="2" opacity="1"/>
		<line x1="331" y1="51" x2="411" y2="51" stroke="#4393c3" stroke-width="1"/>
	</g>
	<text x="339" y="43.75" fill="#000000" font-family="Verdana" font-size="12">Campagne</text>
	<text x="336" y="68.8" fill="#000000" font-family="Verdana" font-size="12">id</text>
	<line x1="336" y1="71" x2="348" y2="71" stroke="#000000" stroke-width="1"/>
	<text x="336" y="85.8" fill="#000000" font-family="Verdana" font-size="12">date_debut</text>
	<text x="336" y="102.8" fill="#000000" font-family="Verdana" font-size="12">duree</text>
	<text x="336" y="119.8" fill="#000000" font-family="Verdana" font-size="12">lieu</text>
</g>

<!-- Entity ECHANTILLON -->
<g>
	<g>
		<rect x="443" y="35" width="112" height="25" fill="#92c5de" stroke="none" stroke-width="0" opacity="1"/>
		<rect x="443" y="60" width="112" height="59" fill="#d1e5f0" stroke="none" stroke-width="0" opacity="1"/>
		<rect x="443" y="35" width="112" height="84" fill="none" stroke="#4393c3" stroke-width="2" opacity="1"/>
		<line x1="443" y1="60" x2="555" y2="60" stroke="#4393c3" stroke-width="1"/>
	</g>
	<text x="466" y="52.75" fill="#000000" font-family="Verdana" font-size="12">Echantillon</text>
	<text x="448" y="77.8" fill="#000000" font-family="Verdana" font-size="12">id</text>
	<line x1="448" y1="80" x2="460" y2="80" stroke="#000000" stroke-width="1"/>
	<text x="448" y="94.8" fill="#000000" font-family="Verdana" font-size="12">fichier_sequence</text>
	<text x="448" y="111.8" fill="#000000" font-family="Verdana" font-size="12">commentaire</text>
</g>

<!-- Entity MAINTENANCE -->
<g>
	<g>
		<rect x="587" y="26" width="124" height="25" fill="#92c5de" stroke="none" stroke-width="0" opacity="1"/>
		<rect x="587" y="51" width="124" height="77" fill="#d1e5f0" stroke="none" stroke-width="0" opacity="1"/>
		<rect x="587" y="26" width="124" height="102" fill="none" stroke="#4393c3" stroke-width="2" opacity="1"/>
		<line x1="587" y1="51" x2="711" y2="51" stroke="#4393c3" stroke-width="1"/>
	</g>
	<text x="611" y="43.75" fill="#000000" font-family="Verdana" font-size="12">Maintenance</text>
	<text x="592" y="68.8" fill="#000000" font-family="Verdana" font-size="12">id</text>
	<line x1="592" y1="71" x2="604" y2="71" stroke="#000000" stroke-width="1"/>
	<text x="592" y="85.8" fill="#000000" font-family="Verdana" font-size="12">date_maintenance</text>
	<text x="592" y="102.8" fill="#000000" font-family="Verdana" font-size="12">duree</text>
	<text x="592" y="119.8" fill="#000000" font-family="Verdana" font-size="12">type_operation</text>
</g>

<!-- Entity BUDGET -->
<g>
	<g>
		<rect x="743" y="35" width="62" height="25" fill="#92c5de" stroke="none" stroke-width="0" opacity="1"/>
		<rect x="743" y="60" width="62" height="59" fill="#d1e5f0" stroke="none" stroke-width="0" opacity="1"/>
		<rect x="743" y="35" width="62" height="84" fill="none" stroke="#4393c3" stroke-width="2" opacity="1"/>
		<line x1="743" y1="60" x2="805" y2="60" stroke="#4393c3" stroke-width="1"/>
	</g>
	<text x="752" y="52.75" fill="#000000" font-family="Verdana" font-size="12">Budget</text>
	<text x="748" y="77.8" fill="#000000" font-family="Verdana" font-size="12">id</text>
	<line x1="748" y1="80" x2="760" y2="80" stroke="#000000" stroke-width="1"/>
	<text x="748" y="94.8" fill="#000000" font-family="Verdana" font-size="12">mois</text>
	<text x="748" y="111.8" fill="#000000" font-family="Verdana" font-size="12">montant</text>
</g>
</svg>