<?xml version="1.0" encoding="utf-8"?>
<!-- Generated by Mocodo 4.3.2 -->
<svg width="703" height="465" viewBox="0 0 703 465" xmlns="http://www.w3.org/2000/svg">
<rect x="0" y="0" width="703" height="465" fill="#f5f5f5" stroke="none" stroke-width="0"/>

<!-- Association PLANIFIER -->
<g>
	<line x1="96" y1="296" x2="254" y2="60" stroke="#bf812d" stroke-width="2"/>
	<line x1="380" y1="60" x2="254" y2="60" stroke="#bf812d" stroke-width="2"/>
	<g>
		<path d="M272 35 a14 14 90 0 1 14 14 V60 h-64 V49 a14 14 90 0 1 14 -14" fill="#dfc27d" stroke="#dfc27d" stroke-width="0"/>
		<path d="M286 60 v11 a14 14 90 0 1 -14 14 H236 a14 14 90 0 1 -14 -14 V60 H64" fill="#f6e8c3" stroke="#f6e8c3" stroke-width="0"/>
		<rect x="222" y="35" width="64" height="50" fill="none" rx="14" stroke="#bf812d" stroke-width="2"/>
		<line x1="222" y1="60" x2="286" y2="60" stroke="#bf812d" stroke-width="1"/>
		<text x="230" y="52.75" fill="#000000" font-family="Verdana" font-size="12">Planifier</text>
	</g>
	<text x="119.65" y="220" fill="#01665e" font-family="Verdana" font-size="12">0,N</text>
	<text x="292" y="77" fill="#01665e" font-family="Verdana" font-size="12">1,1</text>
</g>

<!-- Association IMPLIQUE -->
<g>
	<line x1="380" y1="296" x2="254" y2="178" stroke="#bf812d" stroke-width="2"/>
	<line x1="380" y1="178" x2="254" y2="178" stroke="#bf812d" stroke-width="2"/>
	<g>
		<path d="M274 153 a14 14 90 0 1 14 14 V178 h-68 V167 a14 14 90 0 1 14 -14" fill="#dfc27d" stroke="#dfc27d" stroke-width="0"/>
		<path d="M288 178 v11 a14 14 90 0 1 -14 14 H234 a14 14 90 0 1 -14 -14 V178 H68" fill="#f6e8c3" stroke="#f6e8c3" stroke-width="0"/>
		<rect x="220" y="153" width="68" height="50" fill="none" rx="14" stroke="#bf812d" stroke-width="2"/>
		<line x1="220" y1="178" x2="288" y2="178" stroke="#bf812d" stroke-width="1"/>
		<text x="227" y="170.75" fill="#000000" font-family="Verdana" font-size="12">Implique</text>
	</g>
	<text x="313" y="268.8" fill="#01665e" font-family="Verdana" font-size="12">0,N</text>
	<text x="311" y="195" fill="#01665e" font-family="Verdana" font-size="12">0,N</text>
</g>

<!-- Association PARTICIPE -->
<g>
	<line x1="638" y1="296" x2="501" y2="178" stroke="#bf812d" stroke-width="2"/>
	<line x1="380" y1="178" x2="501" y2="178" stroke="#bf812d" stroke-width="2"/>
	<g>
		<path d="M521 153 a14 14 90 0 1 14 14 V178 h-68 V167 a14 14 90 0 1 14 -14" fill="#dfc27d" stroke="#dfc27d" stroke-width="0"/>
		<path d="M535 178 v11 a14 14 90 0 1 -14 14 H481 a14 14 90 0 1 -14 -14 V178 H68" fill="#f6e8c3" stroke="#f6e8c3" stroke-width="0"/>
		<rect x="467" y="153" width="68" height="50" fill="none" rx="14" stroke="#bf812d" stroke-width="2"/>
		<line x1="467" y1="178" x2="535" y2="178" stroke="#bf812d" stroke-width="1"/>
		<text x="475" y="170.75" fill="#000000" font-family="Verdana" font-size="12">Participe</text>
	</g>
	<text x="587.91" y="246" fill="#01665e" font-family="Verdana" font-size="12">0,N</text>
	<text x="427" y="195" fill="#01665e" font-family="Verdana" font-size="12">0,N</text>
</g>

<!-- Association APPARTENIR -->
<g>
	<line x1="96" y1="296" x2="254" y2="296" stroke="#bf812d" stroke-width="2"/>
	<line x1="380" y1="296" x2="254" y2="296" stroke="#bf812d" stroke-width="2"/>
	<g>
		<path d="M279 271 a14 14 90 0 1 14 14 V296 h-78 V285 a14 14 90 0 1 14 -14" fill="#dfc27d" stroke="#dfc27d" stroke-width="0"/>
		<path d="M293 296 v11 a14 14 90 0 1 -14 14 H229 a14 14 90 0 1 -14 -14 V296 H78" fill="#f6e8c3" stroke="#f6e8c3" stroke-width="0"/>
		<rect x="215" y="271" width="78" height="50" fill="none" rx="14" stroke="#bf812d" stroke-width="2"/>
		<line x1="215" y1="296" x2="293" y2="296" stroke="#bf812d" stroke-width="1"/>
		<text x="222" y="288.75" fill="#000000" font-family="Verdana" font-size="12">Appartenir</text>
	</g>
	<text x="188" y="313" fill="#01665e" font-family="Verdana" font-size="12">0,N</text>
	<text x="314" y="313" fill="#01665e" font-family="Verdana" font-size="12">1,1</text>
</g>

<!-- Association ETRE_RATTACHE -->
<g>
	<line x1="380" y1="296" x2="501" y2="296" stroke="#bf812d" stroke-width="2"/>
	<line x1="638" y1="296" x2="501" y2="296" stroke="#bf812d" stroke-width="2"/>
	<g>
		<path d="M536 271 a14 14 90 0 1 14 14 V296 h-98 V285 a14 14 90 0 1 14 -14" fill="#dfc27d" stroke="#dfc27d" stroke-width="0"/>
		<path d="M550 296 v11 a14 14 90 0 1 -14 14 H466 a14 14 90 0 1 -14 -14 V296 H98" fill="#f6e8c3" stroke="#f6e8c3" stroke-width="0"/>
		<rect x="452" y="271" width="98" height="50" fill="none" rx="14" stroke="#bf812d" stroke-width="2"/>
		<line x1="452" y1="296" x2="550" y2="296" stroke="#bf812d" stroke-width="1"/>
		<text x="460" y="288.75" fill="#000000" font-family="Verdana" font-size="12">Etre_rattache</text>
	</g>
	<text x="425" y="313" fill="#01665e" font-family="Verdana" font-size="12">0,N</text>
	<text x="556" y="313" fill="#01665e" font-family="Verdana" font-size="12">1,1</text>
</g>

<!-- Association VALIDE -->
<g>
	<line x1="380" y1="414" x2="254" y2="414" stroke="#bf812d" stroke-width="2"/>
	<line x1="380" y1="296" x2="254" y2="414" stroke="#bf812d" stroke-width="2"/>
	<g>
		<path d="M266 389 a14 14 90 0 1 14 14 V414 h-52 V403 a14 14 90 0 1 14 -14" fill="#dfc27d" stroke="#dfc27d" stroke-width="0"/>
		<path d="M280 414 v11 a14 14 90 0 1 -14 14 H242 a14 14 90 0 1 -14 -14 V414 H52" fill="#f6e8c3" stroke="#f6e8c3" stroke-width="0"/>
		<rect x="228" y="389" width="52" height="50" fill="none" rx="14" stroke="#bf812d" stroke-width="2"/>
		<line x1="228" y1="414" x2="280" y2="414" stroke="#bf812d" stroke-width="1"/>
		<text x="235" y="406.75" fill="#000000" font-family="Verdana" font-size="12">Valide</text>
	</g>
	<text x="322" y="431" fill="#01665e" font-family="Verdana" font-size="12">0,N</text>
	<text x="313" y="332.2" fill="#01665e" font-family="Verdana" font-size="12">0,N</text>
</g>

<!-- Entity MAINTENANCE -->
<g>
	<g>
		<rect x="318" y="9" width="124" height="25" fill="#80cdc1" stroke="none" stroke-width="0" opacity="1"/>
		<rect x="318" y="34" width="124" height="77" fill="#c7eae5" stroke="none" stroke-width="0" opacity="1"/>
		<rect x="318" y="9" width="124" height="102" fill="none" stroke="#35978f" stroke-width="2" opacity="1"/>
		<line x1="318" y1="34" x2="442" y2="34" stroke="#35978f" stroke-width="1"/>
	</g>
	<text x="342" y="26.75" fill="#000000" font-family="Verdana" font-size="12">Maintenance</text>
	<text x="323" y="51.8" fill="#000000" font-family="Verdana" font-size="12">id</text>
	<line x1="323" y1="54" x2="335" y2="54" stroke="#000000" stroke-width="1"/>
	<text x="323" y="68.8" fill="#000000" font-family="Verdana" font-size="12">date_maintenance</text>
	<text x="323" y="85.8" fill="#000000" font-family="Verdana" font-size="12">duree</text>
	<text x="323" y="102.8" fill="#000000" font-family="Verdana" font-size="12">type_operation</text>
</g>

<!-- Entity PERSONNEL -->
<g>
	<g>
		<rect x="338" y="136" width="84" height="25" fill="#80cdc1" stroke="none" stroke-width="0" opacity="1"/>
		<rect x="338" y="161" width="84" height="59" fill="#c7eae5" stroke="none" stroke-width="0" opacity="1"/>
		<rect x="338" y="136" width="84" height="84" fill="none" stroke="#35978f" stroke-width="2" opacity="1"/>
		<line x1="338" y1="161" x2="422" y2="161" stroke="#35978f" stroke-width="1"/>
	</g>
	<text x="350" y="153.75" fill="#000000" font-family="Verdana" font-size="12">Personnel</text>
	<text x="343" y="178.8" fill="#000000" font-family="Verdana" font-size="12">id</text>
	<line x1="343" y1="181" x2="355" y2="181" stroke="#000000" stroke-width="1"/>
	<text x="343" y="195.8" fill="#000000" font-family="Verdana" font-size="12">nom</text>
	<text x="343" y="212.8" fill="#000000" font-family="Verdana" font-size="12">habilitations</text>
</g>

<!-- Entity PLATEFORME -->
<g>
	<g>
		<rect x="9" y="228" width="174" height="25" fill="#80cdc1" stroke="none" stroke-width="0" opacity="1"/>
		<rect x="9" y="253" width="174" height="111" fill="#c7eae5" stroke="none" stroke-width="0" opacity="1"/>
		<rect x="9" y="228" width="174" height="136" fill="none" stroke="#35978f" stroke-width="2" opacity="1"/>
		<line x1="9" y1="253" x2="183" y2="253" stroke="#35978f" stroke-width="1"/>
	</g>
	<text x="63" y="245.75" fill="#000000" font-family="Verdana" font-size="12">Plateforme</text>
	<text x="14" y="270.8" fill="#000000" font-family="Verdana" font-size="12">id</text>
	<line x1="14" y1="273" x2="26" y2="273" stroke="#000000" stroke-width="1"/>
	<text x="14" y="287.8" fill="#000000" font-family="Verdana" font-size="12">nom</text>
	<text x="14" y="304.8" fill="#000000" font-family="Verdana" font-size="12">nb_personnes_necessaires</text>
	<text x="14" y="321.8" fill="#000000" font-family="Verdana" font-size="12">cout_journalier</text>
	<text x="14" y="338.8" fill="#000000" font-family="Verdana" font-size="12">habilitations_requises</text>
	<text x="14" y="355.8" fill="#000000" font-family="Verdana" font-size="12">intervalle_maintenance</text>
</g>

<!-- Entity CAMPAGNE -->
<g>
	<g>
		<rect x="340" y="245" width="80" height="25" fill="#80cdc1" stroke="none" stroke-width="0" opacity="1"/>
		<rect x="340" y="270" width="80" height="77" fill="#c7eae5" stroke="none" stroke-width="0" opacity="1"/>
		<rect x="340" y="245" width="80" height="102" fill="none" stroke="#35978f" stroke-width="2" opacity="1"/>
		<line x1="340" y1="270" x2="420" y2="270" stroke="#35978f" stroke-width="1"/>
	</g>
	<text x="348" y="262.75" fill="#000000" font-family="Verdana" font-size="12">Campagne</text>
	<text x="345" y="287.8" fill="#000000" font-family="Verdana" font-size="12">id</text>
	<line x1="345" y1="290" x2="357" y2="290" stroke="#000000" stroke-width="1"/>
	<text x="345" y="304.8" fill="#000000" font-family="Verdana" font-size="12">date_debut</text>
	<text x="345" y="321.8" fill="#000000" font-family="Verdana" font-size="12">duree</text>
	<text x="345" y="338.8" fill="#000000" font-family="Verdana" font-size="12">lieu</text>
</g>

<!-- Entity ECHANTILLON -->
<g>
	<g>
		<rect x="582" y="254" width="112" height="25" fill="#80cdc1" stroke="none" stroke-width="0" opacity="1"/>
		<rect x="582" y="279" width="112" height="59" fill="#c7eae5" stroke="none" stroke-width="0" opacity="1"/>
		<rect x="582" y="254" width="112" height="84" fill="none" stroke="#35978f" stroke-width="2" opacity="1"/>
		<line x1="582" y1="279" x2="694" y2="279" stroke="#35978f" stroke-width="1"/>
	</g>
	<text x="605" y="271.75" fill="#000000" font-family="Verdana" font-size="12">Echantillon</text>
	<text x="587" y="296.8" fill="#000000" font-family="Verdana" font-size="12">id</text>
	<line x1="587" y1="299" x2="599" y2="299" stroke="#000000" stroke-width="1"/>
	<text x="587" y="313.8" fill="#000000" font-family="Verdana" font-size="12">fichier_sequence</text>
	<text x="587" y="330.8" fill="#000000" font-family="Verdana" font-size="12">commentaire</text>
</g>

<!-- Entity BUDGET -->
<g>
	<g>
		<rect x="349" y="372" width="62" height="25" fill="#80cdc1" stroke="none" stroke-width="0" opacity="1"/>
		<rect x="349" y="397" width="62" height="59" fill="#c7eae5" stroke="none" stroke-width="0" opacity="1"/>
		<rect x="349" y="372" width="62" height="84" fill="none" stroke="#35978f" stroke-width="2" opacity="1"/>
		<line x1="349" y1="397" x2="411" y2="397" stroke="#35978f" stroke-width="1"/>
	</g>
	<text x="358" y="389.75" fill="#000000" font-family="Verdana" font-size="12">Budget</text>
	<text x="354" y="414.8" fill="#000000" font-family="Verdana" font-size="12">id</text>
	<line x1="354" y1="417" x2="366" y2="417" stroke="#000000" stroke-width="1"/>
	<text x="354" y="431.8" fill="#000000" font-family="Verdana" font-size="12">mois</text>
	<text x="354" y="448.8" fill="#000000" font-family="Verdana" font-size="12">montant</text>
</g>
</svg>